<?xml version="1.0" standalone="no"?>
<!DOCTYPE svg PUBLIC "-//W3C//DTD SVG 20010904//EN"
 "http://www.w3.org/TR/2001/REC-SVG-20010904/DTD/svg10.dtd">
<svg version="1.0" xmlns="http://www.w3.org/2000/svg"
 width="400.000000pt" height="400.000000pt" viewBox="0 0 400.000000 400.000000"
 preserveAspectRatio="xMidYMid meet">

<g transform="translate(0.000000,400.000000) scale(0.100000,-0.100000)"
fill="#000000" stroke="none">
<path d="M1869 3763 c-43 -42 -79 -84 -79 -94 0 -25 -57 -64 -73 -51 -7 6 -18
7 -25 3 -10 -6 -9 -13 5 -30 19 -23 19 -23 56 -4 20 10 37 23 37 28 0 6 9 16
20 23 11 7 20 19 20 28 0 9 28 42 61 74 60 56 62 57 90 43 16 -8 33 -12 39 -8
5 3 10 3 10 -2 0 -10 -92 -93 -102 -93 -5 0 -8 -4 -8 -9 0 -17 91 -6 101 12 5
9 24 23 42 31 67 30 76 30 118 -4 40 -32 145 -80 174 -80 8 0 23 -17 32 -37
19 -40 63 -60 63 -29 0 33 30 14 72 -46 24 -34 62 -76 84 -93 65 -47 79 -83
77 -187 -2 -62 1 -87 8 -82 8 4 9 -1 4 -16 -5 -15 -3 -20 3 -16 6 3 13 2 17
-4 3 -5 2 -10 -4 -10 -6 0 -8 -7 -4 -16 4 -11 8 -12 13 -4 5 8 9 7 14 -5 9
-24 8 -27 -6 -19 -7 5 -9 2 -5 -8 48 -127 63 -279 32 -338 -15 -28 -14 -30 4
-30 15 0 27 14 41 45 18 39 20 57 14 123 -7 91 -29 176 -49 192 -8 7 -15 17
-15 22 0 5 -9 29 -20 53 -16 34 -18 53 -12 82 10 48 -2 166 -17 171 -6 2 -11
9 -11 15 0 7 -19 26 -41 42 -47 34 -107 105 -89 105 16 0 90 -53 121 -87 59
-65 103 -158 144 -308 9 -33 28 -95 41 -138 25 -81 30 -117 16 -117 -4 0 -15
-13 -25 -29 -25 -43 1 -47 41 -6 39 39 40 57 6 171 -14 49 -36 126 -49 172
-53 190 -140 308 -278 375 -42 21 -77 42 -77 47 0 6 -18 10 -40 10 -22 0 -48
4 -58 10 -9 5 -51 23 -93 40 -42 17 -87 42 -99 55 -13 14 -38 27 -56 31 -18 3
-35 12 -38 20 -4 10 -22 14 -61 14 -30 0 -55 4 -55 8 0 5 -12 14 -26 21 -24
11 -30 7 -105 -66z"/>
<path d="M1430 3713 c-19 -9 -51 -23 -70 -32 -70 -29 -88 -62 -52 -94 21 -19
58 -22 67 -6 4 6 -2 13 -14 16 -12 3 -21 13 -21 22 0 22 127 81 174 81 75 0
120 -101 59 -130 -40 -18 -10 -26 39 -9 33 11 38 16 33 33 -4 12 -9 33 -12 49
-3 15 -9 27 -14 27 -5 0 -9 6 -9 14 0 20 -62 46 -107 45 -21 0 -54 -8 -73 -16z"/>
<path d="M963 3583 c-100 -81 -129 -119 -157 -213 -10 -30 -21 -63 -26 -72 -9
-15 -32 -91 -62 -203 -6 -22 -29 -89 -51 -150 -37 -105 -39 -113 -31 -176 5
-37 6 -77 3 -90 -4 -13 -7 -59 -8 -101 -1 -62 2 -78 14 -78 11 0 15 17 17 73
3 66 4 70 15 45 7 -16 17 -28 23 -28 15 0 12 57 -6 91 -8 17 -13 38 -10 46 14
36 37 166 30 172 -4 3 -9 1 -11 -5 -2 -6 -10 -20 -18 -30 -13 -17 -14 -15 -3
16 6 19 14 40 18 45 9 13 37 97 50 152 18 73 33 64 29 -18 -3 -61 -1 -74 11
-74 19 0 38 70 39 141 1 52 12 71 64 100 43 25 48 26 65 12 17 -14 40 -18 45
-8 4 9 -40 60 -52 60 -16 0 -70 -30 -114 -64 -21 -16 -41 -26 -44 -22 -4 3 4
30 16 59 13 28 33 83 44 121 18 58 31 79 78 127 63 64 112 94 137 84 27 -12
62 -14 62 -4 0 13 -55 39 -84 39 -14 0 -49 -20 -83 -47z"/>
<path d="M1133 3484 c-55 -27 -85 -61 -81 -92 2 -19 9 -28 26 -30 20 -3 22 0
17 21 -5 19 0 30 25 50 41 35 85 42 139 23 24 -9 47 -13 52 -10 5 3 12 -2 15
-10 7 -18 24 -22 24 -6 0 16 -117 70 -152 70 -18 0 -48 -8 -65 -16z"/>
<path d="M1420 2898 c1 -18 60 -82 88 -97 25 -13 52 -9 52 9 0 5 -7 10 -16 10
-8 0 -34 20 -56 45 -40 44 -68 58 -68 33z"/>
<path d="M1830 2895 c0 -10 10 -15 31 -15 21 0 39 -9 58 -29 17 -18 35 -28 47
-26 10 2 22 4 27 4 16 2 6 21 -11 21 -10 0 -31 14 -47 30 -22 23 -38 30 -67
30 -27 0 -38 -4 -38 -15z"/>
<path d="M2070 2889 l-35 -20 48 5 c52 6 57 0 27 -34 -23 -27 -25 -40 -7 -40
15 0 50 37 60 63 18 48 -31 61 -93 26z"/>
<path d="M1164 2867 c-6 -16 6 -38 68 -134 38 -59 53 -73 73 -73 16 0 25 6 25
15 0 8 -6 15 -14 15 -8 0 -40 43 -71 95 -57 94 -71 108 -81 82z"/>
<path d="M1580 2865 c0 -9 18 -16 48 -20 26 -3 59 -9 75 -11 38 -8 34 12 -5
24 -60 18 -118 21 -118 7z"/>
<path d="M2110 2653 c-57 -2 -88 -10 -130 -31 -50 -24 -90 -54 -90 -67 0 -9
59 -5 64 4 12 18 141 50 188 46 29 -2 53 2 65 10 25 19 63 18 85 -1 15 -14 20
-15 34 -3 15 12 14 15 -6 31 -23 19 -25 19 -210 11z"/>
<path d="M2713 2573 c-4 -10 3 -24 20 -39 15 -13 27 -29 27 -36 0 -9 -3 -9
-10 2 -6 9 -10 10 -10 3 0 -6 7 -18 15 -27 9 -8 12 -22 8 -32 -4 -10 -2 -15 4
-11 5 3 10 0 10 -8 0 -8 -4 -12 -8 -9 -31 19 -90 -247 -68 -304 8 -21 4 -37
-22 -89 -18 -35 -29 -66 -26 -69 13 -13 33 5 58 52 23 44 26 60 27 165 1 84 5
128 17 155 39 92 39 151 1 217 -31 52 -34 54 -43 30z"/>
<path d="M1068 2565 c-21 -8 -43 -19 -50 -25 -7 -6 -22 -17 -33 -25 -18 -12
-18 -14 -3 -20 10 -4 31 0 48 8 24 12 44 14 100 6 38 -5 102 -13 142 -19 54
-7 74 -6 80 3 5 8 10 4 14 -11 6 -19 11 -22 33 -17 31 8 38 14 43 40 3 21 7
19 -127 55 -75 20 -83 20 -124 5 -39 -14 -46 -14 -61 0 -19 17 -15 17 -62 0z"/>
<path d="M2102 2458 c-26 -16 -50 -21 -103 -20 -38 0 -72 -4 -75 -9 -11 -18
21 -51 61 -65 53 -18 90 -18 145 3 43 17 120 77 120 95 0 12 -34 10 -48 -4 -9
-9 -16 -8 -30 5 -23 21 -29 20 -70 -5z"/>
<path d="M1579 2418 c0 -18 -3 -42 -5 -53 -3 -11 -6 -73 -7 -138 -2 -128 3
-142 53 -131 44 10 150 67 150 81 0 21 -21 15 -70 -17 -47 -31 -95 -39 -102
-17 -5 15 -1 83 10 192 9 90 6 115 -14 115 -9 0 -14 -12 -15 -32z"/>
<path d="M588 2353 c3 -46 14 -90 33 -135 34 -79 34 -79 10 -157 -16 -52 -17
-62 -5 -72 19 -15 18 -16 43 65 26 86 26 90 -6 156 -17 37 -28 79 -32 130 -5
66 -9 75 -27 78 -19 3 -20 -1 -16 -65z"/>
<path d="M2659 2398 c0 -2 -2 -22 -4 -46 -2 -24 -9 -50 -16 -58 -18 -22 4 -42
24 -22 20 19 41 92 34 112 -5 13 -35 24 -38 14z"/>
<path d="M1200 2373 c-28 -12 -45 -13 -84 -6 -51 11 -111 4 -111 -12 0 -6 8
-21 17 -35 14 -19 20 -22 30 -12 18 18 23 15 25 -14 2 -44 15 -49 98 -36 86
14 103 22 133 68 27 41 27 44 2 44 -11 0 -20 5 -20 10 0 15 -50 11 -90 -7z
m-55 -85 c-18 -11 -35 -2 -35 17 0 12 5 12 25 3 22 -10 23 -13 10 -20z"/>
<path d="M782 2183 c-9 -39 -7 -58 8 -103 10 -30 17 -56 15 -58 -2 -2 -15 4
-29 13 -24 16 -26 16 -32 0 -8 -21 2 -31 50 -48 46 -16 80 -62 56 -77 -30 -19
-78 -11 -113 20 -60 52 -79 31 -28 -30 25 -30 34 -34 72 -34 24 0 58 2 74 5
30 4 30 3 36 -51 12 -107 78 -212 179 -280 59 -40 90 -54 270 -123 172 -65
211 -72 309 -57 45 8 81 18 81 23 0 4 -42 6 -95 4 -104 -6 -104 -6 -325 79
-168 65 -198 82 -271 154 -78 78 -96 114 -109 216 -7 50 -16 85 -28 98 -19 21
-47 77 -76 154 -12 31 -15 58 -10 93 5 40 4 49 -9 49 -10 0 -19 -16 -25 -47z"/>
<path d="M2477 2193 c-3 -4 -7 -48 -8 -98 -4 -82 -2 -90 15 -90 16 0 18 9 20
87 0 53 -3 91 -10 98 -7 7 -14 8 -17 3z"/>
<path d="M2584 2175 c-6 -15 31 -75 46 -75 18 0 21 21 6 41 -8 12 -12 28 -9
35 3 9 -2 14 -16 14 -12 0 -24 -7 -27 -15z"/>
<path d="M1955 1961 c-38 -9 -76 -20 -83 -25 -8 -4 -39 -12 -70 -17 -32 -4
-93 -15 -137 -24 -44 -9 -93 -14 -110 -11 -16 3 -61 6 -99 7 -37 1 -93 10
-122 20 -53 18 -88 16 -82 -3 7 -19 85 -39 198 -49 154 -15 144 -15 235 6 44
10 97 19 118 21 21 2 52 11 69 20 16 9 51 18 77 21 25 2 50 9 56 14 5 5 20 9
33 9 14 0 22 5 20 13 -6 17 -23 17 -103 -2z"/>
<path d="M2462 1848 c-12 -18 -36 -42 -54 -52 -18 -11 -38 -25 -45 -32 -7 -6
-49 -22 -95 -34 -92 -24 -157 -61 -243 -136 -95 -82 -106 -94 -100 -104 7 -11
38 11 128 91 67 60 148 104 215 118 88 18 200 88 228 142 18 35 18 39 0 39 -8
0 -23 -15 -34 -32z"/>
<path d="M2337 1443 c-12 -11 -8 -83 8 -136 20 -70 31 -85 46 -70 9 9 9 22 -1
55 -6 24 -17 69 -23 101 -10 55 -16 65 -30 50z"/>
<path d="M2755 1350 c-4 -6 11 -10 37 -11 24 0 52 -2 63 -4 11 -2 153 -6 315
-9 316 -5 336 -7 414 -32 38 -13 67 -34 117 -84 66 -66 74 -80 164 -275 36
-76 94 -233 100 -265 1 -8 9 -16 18 -18 40 -8 9 118 -75 298 -83 178 -104 215
-155 270 -72 78 -152 117 -263 128 -123 13 -728 14 -735 2z"/>
<path d="M745 1261 c-112 -65 -183 -99 -245 -120 -36 -12 -74 -26 -85 -30 -83
-37 -160 -80 -220 -123 -38 -27 -98 -63 -133 -80 -54 -26 -62 -33 -61 -56 0
-15 3 -21 6 -14 3 8 24 22 47 32 40 19 96 50 106 60 3 3 43 30 90 61 81 53
135 78 278 129 34 13 65 27 68 31 3 5 11 9 18 9 8 0 48 21 89 46 80 47 95 52
140 39 33 -9 36 7 5 29 -31 22 -45 20 -103 -13z"/>
<path d="M1385 1248 c-8 -21 14 -110 32 -130 16 -18 43 -25 43 -10 0 4 -11 38
-24 77 -24 69 -41 90 -51 63z"/>
<path d="M1180 1121 c0 -5 3 -11 8 -13 4 -1 22 -32 40 -69 42 -86 86 -126 207
-189 94 -50 106 -54 186 -58 58 -3 109 1 157 12 39 9 89 16 111 16 113 0 379
106 463 184 14 14 51 41 82 61 56 35 70 55 41 55 -18 0 -89 -45 -125 -79 -65
-61 -221 -140 -325 -164 -111 -27 -327 -50 -410 -45 -73 5 -88 10 -169 56
-110 62 -145 96 -187 178 -26 51 -37 64 -55 64 -13 0 -24 -4 -24 -9z"/>
<path d="M2339 932 c-20 -10 -42 -24 -50 -30 -65 -56 -238 -127 -389 -161
-137 -30 -318 -31 -380 -2 -55 25 -73 26 -68 4 2 -9 28 -25 63 -39 54 -20 72
-22 175 -17 159 7 303 36 425 86 56 23 160 79 195 106 19 14 48 28 65 31 18 3
31 12 33 23 5 23 -23 22 -69 -1z"/>
<path d="M4 685 c3 -74 9 -112 25 -145 11 -25 21 -57 21 -72 0 -34 27 -38 32
-5 3 22 -52 253 -72 298 -8 18 -9 -2 -6 -76z"/>
<path d="M1260 566 c-88 -25 -116 -46 -198 -151 -42 -54 -17 -162 51 -220 42
-36 42 -36 134 -34 86 1 109 8 83 24 -5 3 -42 6 -82 7 -87 1 -116 18 -147 81
-35 72 -29 106 30 175 38 46 63 65 97 76 63 22 92 20 167 -10 83 -33 125 -80
125 -140 0 -44 -12 -60 -67 -88 -26 -13 -33 -23 -33 -47 0 -24 4 -30 18 -27 9
2 18 12 20 24 2 12 21 30 47 44 73 40 83 102 30 182 -27 41 -87 76 -174 102
-30 9 -55 16 -55 15 -1 0 -21 -6 -46 -13z"/>
<path d="M585 488 c4 -13 12 -66 17 -118 8 -66 17 -104 31 -123 25 -37 44 -22
29 22 -6 17 -14 70 -18 118 -8 100 -16 123 -46 123 -17 0 -19 -4 -13 -22z"/>
<path d="M1166 461 c-3 -5 5 -29 19 -53 32 -55 31 -64 -5 -77 -32 -11 -49 -36
-33 -52 6 -6 25 -4 52 6 54 19 50 20 61 -10 6 -17 17 -25 34 -25 13 0 30 -10
39 -22 12 -19 18 -21 28 -11 10 10 9 20 -9 51 -15 28 -20 48 -16 74 6 34 5 35
-24 30 -25 -3 -35 3 -72 47 -42 49 -63 61 -74 42z"/>
<path d="M1704 439 c-9 -15 6 -29 32 -29 30 0 30 -11 1 -47 -34 -40 -77 -117
-77 -136 0 -31 19 -17 52 38 34 57 29 55 114 59 12 1 22 -16 34 -53 18 -52 32
-71 58 -71 16 0 15 20 -3 44 -8 11 -15 28 -15 39 0 10 -17 52 -37 93 l-37 73
-58 0 c-32 -1 -61 -5 -64 -10z m106 -64 c0 -8 -7 -15 -15 -15 -9 0 -12 6 -9
15 4 8 10 15 15 15 5 0 9 -7 9 -15z"/>
<path d="M2262 428 c-52 -32 -82 -129 -48 -158 9 -7 40 -10 77 -9 60 3 63 2
72 -24 5 -15 15 -27 23 -27 10 0 14 15 14 59 0 55 2 61 26 73 15 7 25 18 23
23 -5 13 -78 6 -109 -11 -25 -13 -25 -13 -2 -14 24 0 29 -19 10 -38 -13 -13
-104 -17 -112 -4 -12 19 18 98 47 125 35 32 26 34 -21 5z"/>
<path d="M2720 431 c-41 -10 -74 -21 -72 -27 2 -9 6 -10 36 -13 9 -1 16 -22
21 -67 7 -68 19 -83 53 -69 9 4 34 9 54 10 44 4 58 11 58 31 0 10 -5 12 -14 7
-18 -10 -106 -4 -106 7 0 8 42 22 70 24 8 1 15 8 15 16 0 16 -9 16 -62 5 -32
-7 -33 -6 -33 24 0 29 2 31 38 31 20 0 44 5 52 10 13 9 13 11 0 20 -18 12 -16
12 -110 -9z"/>
<path d="M2058 428 c-33 -12 -34 -18 -8 -41 27 -23 25 -43 -5 -72 -31 -27 -23
-35 29 -30 44 4 51 9 40 27 -12 19 -15 96 -4 103 16 10 11 25 -7 24 -10 0 -30
-5 -45 -11z"/>
<path d="M2471 406 c-8 -10 -9 -15 -1 -18 7 -2 12 -35 12 -83 1 -44 6 -83 11
-86 4 -3 33 0 63 7 64 15 61 14 74 14 6 0 10 14 10 30 0 34 -14 39 -29 11 -11
-20 -80 -34 -82 -16 -1 5 -2 42 -3 80 -2 62 -5 70 -23 73 -11 2 -25 -4 -32
-12z"/>
</g>
</svg>
